<svg xmlns="http://www.w3.org/2000/svg" width="124" height="30" viewBox="0 0 124 30">
    <g fill="#FFF" fill-rule="evenodd">
        <path d="M29.335 27.713h-6.832l-2.09-5.032H9.024l-1.904 5.032H.4L10.668 2.301h7.354l11.313 25.412zM14.438 8.373l-3.733 9.874h7.84l-4.107-9.873zM54.155 2.301h5.525v25.412h-6.347V11.84l-6.87 7.973h-.97l-6.87-7.973v15.874h-6.347V2.301H37.8l8.177 9.427 8.177-9.427M75.764 2.301c9.296 0 14.074 5.775 14.074 12.742 0 7.303-4.629 12.67-14.784 12.67H64.526V2.301h11.238zm-4.891 20.755h4.144c6.384 0 8.288-4.323 8.288-8.05 0-4.36-2.352-8.047-8.363-8.047h-4.07v16.097zM115.597 8.326h-13.13L94.463.337H123.6v29.08l-8.003-7.988V8.326M102.458 21.439V9.928l-8.241 8.223v11.512h11.532l8.24-8.224h-11.531"/>
    </g>
</svg>
