<svg xmlns="http://www.w3.org/2000/svg" width="24" height="19" viewBox="0 0 24 19">
    <path fill="#FFF" fill-rule="evenodd" d="M24 2.25c-.893.38-1.843.634-2.835.756A4.792 4.792 0 0 0 23.33.356c-.952.553-2.001.943-3.12 1.161A4.992 4.992 0 0 0 16.614 0C13.893 0 11.7 2.154 11.7 4.795c0 .38.032.746.114 1.093A14.05 14.05 0 0 1 1.67.874a4.735 4.735 0 0 0-.673 2.423c0 1.66.877 3.132 2.185 3.984a4.956 4.956 0 0 1-2.223-.59v.052c0 2.33 1.706 4.265 3.942 4.711a5.04 5.04 0 0 1-1.29.158c-.315 0-.633-.018-.932-.082.638 1.899 2.447 3.295 4.598 3.34a10.053 10.053 0 0 1-6.1 2.045c-.404 0-.791-.018-1.178-.066C2.18 18.219 4.762 19 7.548 19c9.054 0 14.004-7.308 14.004-13.642 0-.212-.008-.416-.018-.62A9.683 9.683 0 0 0 24 2.25"/>
</svg>
