<svg xmlns="http://www.w3.org/2000/svg" width="29" height="19" viewBox="0 0 29 19">
    <path fill="#FEFEFE" fill-rule="evenodd" d="M10.545 14.567V4.433L19.773 9.5l-9.228 5.067zM27.768 1.83C26.98.497 26.127.252 24.388.159 22.653.047 18.286 0 14.504 0c-3.79 0-8.159.047-9.893.157-1.734.095-2.59.339-3.384 1.674C.417 3.163 0 5.456 0 9.495v.014c0 4.02.417 6.332 1.227 7.65.794 1.333 1.647 1.575 3.382 1.687 1.736.097 6.105.154 9.895.154 3.782 0 8.149-.057 9.887-.152 1.738-.112 2.592-.354 3.378-1.687C28.587 15.843 29 13.53 29 9.51v-.014c0-4.04-.413-6.334-1.233-7.666z"/>
</svg>
