<svg xmlns="http://www.w3.org/2000/svg" width="20" height="20" viewBox="0 0 20 20">
    <path fill="#FFF" fill-rule="evenodd" d="M0 19.84h4.516V7.171H0V19.84zm2.272-19C.898.84 0 1.795 0 3.054c0 1.231.872 2.217 2.219 2.217h.026c1.4 0 2.271-.985 2.271-2.217C4.49 1.796 3.646.84 2.272.84zM20 12.387v7.451h-4.226v-6.952c0-1.747-.611-2.939-2.141-2.939-1.168 0-1.863.804-2.168 1.58-.112.278-.14.665-.14 1.054v7.257H7.096s.057-11.775 0-12.995h4.227v1.842l-.028.042h.028v-.042c.562-.884 1.565-2.147 3.81-2.147C17.915 6.54 20 8.396 20 12.388z"/>
</svg>
