<svg xmlns="http://www.w3.org/2000/svg" width="182" height="44" viewBox="0 0 182 44">
    <g fill="#000" fill-rule="evenodd">
        <path d="M43.057 40.646H33.028l-3.068-7.38H13.246l-2.795 7.38H.588l15.07-37.27h10.794l16.605 37.27zM21.192 12.282l-5.48 14.48h11.507l-6.027-14.48zM79.485 3.375h8.11v37.27h-9.317v-23.28L68.196 29.057h-1.424L56.689 17.364v23.282h-9.317V3.376h8.11L67.483 17.2 79.485 3.375M111.202 3.375c13.644 0 20.657 8.47 20.657 18.688 0 10.712-6.794 18.583-21.698 18.583H94.707V3.376h16.495zm-7.179 30.44h6.082c9.37 0 12.166-6.34 12.166-11.806 0-6.395-3.453-11.803-12.276-11.803h-5.972v23.609zM150.395 12.212L138.647.495h42.766v42.65l-11.747-11.716V12.212zM150.382 31.444V14.56l-12.096 12.06v16.885h16.927l12.095-12.062h-16.926"/>
    </g>
</svg>
